{
    "asset" : {
        "generator" : "Khronos glTF Blender I/O v1.4.40",
        "version" : "2.0"
    },
    "scene" : 0,
    "scenes" : [
        {
            "name" : "Scene",
            "nodes" : [
                0,
                1
            ]
        }
    ],
    "nodes" : [
        {
            "mesh" : 0,
            "name" : "Root"
        },
        {
            "mesh" : 1,
            "name" : "Bulb"
        }
    ],
    "materials" : [
        {
            "doubleSided" : true,
            "name" : "Root",
            "pbrMetallicRoughness" : {
                "baseColorFactor" : [
                    1,
                    0.7981484532356262,
                    0.16734887659549713,
                    1
                ],
                "metallicFactor" : 0
            }
        },
        {
            "doubleSided" : true,
            "name" : "Root.001",
            "pbrMetallicRoughness" : {
                "baseColorFactor" : [
                    1,
                    0.7981484532356262,
                    0.16734887659549713,
                    1
                ],
                "metallicFactor" : 0
            }
        }
    ],
    "meshes" : [
        {
            "name" : "The root.001",
            "primitives" : [
                {
                    "attributes" : {
                        "POSITION" : 0,
                        "NORMAL" : 1,
                        "TEXCOORD_0" : 2
                    },
                    "indices" : 3,
                    "material" : 0
                }
            ]
        },
        {
            "name" : "Sphere",
            "primitives" : [
                {
                    "attributes" : {
                        "POSITION" : 4,
                        "NORMAL" : 5,
                        "TEXCOORD_0" : 6
                    },
                    "indices" : 7,
                    "material" : 1
                }
            ]
        }
    ],
    "accessors" : [
        {
            "bufferView" : 0,
            "componentType" : 5126,
            "count" : 53718,
            "max" : [
                1.2855780124664307,
                3.841952323913574,
                2.277907133102417
            ],
            "min" : [
                -1.7943476438522339,
                0.45973923802375793,
                -2.367335796356201
            ],
            "type" : "VEC3"
        },
        {
            "bufferView" : 1,
            "componentType" : 5126,
            "count" : 53718,
            "type" : "VEC3"
        },
        {
            "bufferView" : 2,
            "componentType" : 5126,
            "count" : 53718,
            "type" : "VEC2"
        },
        {
            "bufferView" : 3,
            "componentType" : 5123,
            "count" : 182196,
            "type" : "SCALAR"
        },
        {
            "bufferView" : 4,
            "componentType" : 5126,
            "count" : 174,
            "max" : [
                -0.34701740741729736,
                1.3151911497116089,
                1.917986273765564
            ],
            "min" : [
                -0.4767707586288452,
                1.190826416015625,
                1.7943718433380127
            ],
            "type" : "VEC3"
        },
        {
            "bufferView" : 5,
            "componentType" : 5126,
            "count" : 174,
            "type" : "VEC3"
        },
        {
            "bufferView" : 6,
            "componentType" : 5126,
            "count" : 174,
            "type" : "VEC2"
        },
        {
            "bufferView" : 7,
            "componentType" : 5123,
            "count" : 810,
            "type" : "SCALAR"
        }
    ],
    "bufferViews" : [
        {
            "buffer" : 0,
            "byteLength" : 644616,
            "byteOffset" : 0
        },
        {
            "buffer" : 0,
            "byteLength" : 644616,
            "byteOffset" : 644616
        },
        {
            "buffer" : 0,
            "byteLength" : 429744,
            "byteOffset" : 1289232
        },
        {
            "buffer" : 0,
            "byteLength" : 364392,
            "byteOffset" : 1718976
        },
        {
            "buffer" : 0,
            "byteLength" : 2088,
            "byteOffset" : 2083368
        },
        {
            "buffer" : 0,
            "byteLength" : 2088,
            "byteOffset" : 2085456
        },
        {
            "buffer" : 0,
            "byteLength" : 1392,
            "byteOffset" : 2087544
        },
        {
            "buffer" : 0,
            "byteLength" : 1620,
            "byteOffset" : 2088936
        }
    ],
    "buffers" : [
        {
            "byteLength" : 2090556,
            "uri" : "data:application/octet-stream;base64,"
        }
    ]
}
